<?xml version="1.0" encoding="utf-8"?>
<!-- Generator: Adobe Illustrator 16.0.0, SVG Export Plug-In . SVG Version: 6.00 Build 0)  -->
<!DOCTYPE svg PUBLIC "-//W3C//DTD SVG 1.1//EN" "http://www.w3.org/Graphics/SVG/1.1/DTD/svg11.dtd">
<svg version="1.1" id="Layer_1" xmlns="http://www.w3.org/2000/svg" xmlns:xlink="http://www.w3.org/1999/xlink" x="0px" y="0px"
	 width="124.8px" height="78.079px" viewBox="0 0 124.8 78.079" style="enable-background:new 0 0 124.8 78.079;"
	 xml:space="preserve">
<style type="text/css">
<![CDATA[
	.st0{fill:#B5C5C6;}
	.st1{fill:#D5E5E6;}
	.st2{fill:#455556;}
]]>
</style>
<g>
	<g>
		<g>
			<rect x="12.489" y="3.401" class="st1" width="1.621" height="61.441"/>
		</g>
	</g>
	<g>
		<g>
			<rect x="109.716" y="3.401" class="st1" width="1.621" height="61.441"/>
		</g>
	</g>
	<g>
		<g>
			<rect x="13.299" y="7.704" class="st1" width="97.227" height="1.622"/>
		</g>
	</g>
	<g>
		<g>
			<rect x="13.299" y="11.354" class="st1" width="97.227" height="1.621"/>
		</g>
	</g>
	<g>
		<g>
			<rect x="13.299" y="15.001" class="st1" width="97.227" height="1.622"/>
		</g>
	</g>
	<g>
		<g>
			<rect x="13.299" y="18.65" class="st1" width="97.227" height="1.622"/>
		</g>
	</g>
	<g>
		<g>
			<rect x="13.299" y="22.299" class="st1" width="97.227" height="1.622"/>
		</g>
	</g>
	<g>
		<g>
			<rect x="13.299" y="25.948" class="st1" width="97.227" height="1.622"/>
		</g>
	</g>
	<g>
		<g>
			<rect x="13.299" y="29.596" class="st1" width="97.227" height="1.622"/>
		</g>
	</g>
	<g>
		<g>
			<rect x="13.299" y="33.246" class="st1" width="97.227" height="1.621"/>
		</g>
	</g>
	<g>
		<g>
			<rect x="13.299" y="36.894" class="st1" width="97.227" height="1.621"/>
		</g>
	</g>
	<g>
		<g>
			<rect x="13.299" y="40.542" class="st1" width="97.227" height="1.621"/>
		</g>
	</g>
	<g>
		<g>
			<rect x="13.299" y="44.192" class="st1" width="97.227" height="1.621"/>
		</g>
	</g>
	<g>
		<g>
			<rect x="13.299" y="47.84" class="st1" width="97.227" height="1.621"/>
		</g>
	</g>
	<g>
		<g>
			<rect x="13.299" y="51.489" class="st1" width="97.227" height="1.621"/>
		</g>
	</g>
	<g>
		<g>
			<rect x="13.299" y="55.135" class="st1" width="97.227" height="1.625"/>
		</g>
	</g>
	<g>
		<g>
			<rect x="13.299" y="58.786" class="st1" width="97.227" height="1.622"/>
		</g>
	</g>
	<g>
		<g>
			<rect x="17.839" y="2.434" class="st1" width="1.622" height="61.728"/>
		</g>
	</g>
	<g>
		<g>
			<rect x="22.544" y="2.434" class="st1" width="1.621" height="61.728"/>
		</g>
	</g>
	<g>
		<g>
			<rect x="27.249" y="2.434" class="st1" width="1.622" height="61.728"/>
		</g>
	</g>
	<g>
		<g>
			<rect x="31.955" y="2.434" class="st1" width="1.622" height="61.728"/>
		</g>
	</g>
	<g>
		<g>
			<rect x="36.659" y="2.434" class="st1" width="1.622" height="61.728"/>
		</g>
	</g>
	<g>
		<g>
			<rect x="41.364" y="2.434" class="st1" width="1.623" height="61.728"/>
		</g>
	</g>
	<g>
		<g>
			<rect x="46.07" y="2.434" class="st1" width="1.62" height="61.728"/>
		</g>
	</g>
	<g>
		<g>
			<rect x="50.774" y="2.434" class="st1" width="1.621" height="61.728"/>
		</g>
	</g>
	<g>
		<g>
			<rect x="55.479" y="2.434" class="st1" width="1.621" height="61.728"/>
		</g>
	</g>
	<g>
		<g>
			<rect x="67.382" y="2.434" class="st1" width="1.622" height="61.728"/>
		</g>
	</g>
	<g>
		<g>
			<rect x="72.086" y="2.434" class="st1" width="1.623" height="61.728"/>
		</g>
	</g>
	<g>
		<g>
			<rect x="76.792" y="2.434" class="st1" width="1.621" height="61.728"/>
		</g>
	</g>
	<g>
		<g>
			<rect x="81.497" y="2.434" class="st1" width="1.62" height="61.728"/>
		</g>
	</g>
	<g>
		<g>
			<rect x="86.201" y="2.434" class="st1" width="1.622" height="61.728"/>
		</g>
	</g>
	<g>
		<g>
			<rect x="90.905" y="2.434" class="st1" width="1.624" height="61.728"/>
		</g>
	</g>
	<g>
		<g>
			<rect x="95.611" y="2.434" class="st1" width="1.622" height="61.728"/>
		</g>
	</g>
	<g>
		<g>
			<rect x="100.317" y="2.434" class="st1" width="1.621" height="61.728"/>
		</g>
	</g>
	<g>
		<g>
			<rect x="105.021" y="2.434" class="st1" width="1.622" height="61.728"/>
		</g>
	</g>
	<g>
		<g>
			
				<rect x="7.479" y="56.963" transform="matrix(0.5658 0.8246 -0.8246 0.5658 55.5828 20.5395)" class="st1" width="1.623" height="12.158"/>
		</g>
	</g>
	<g>
		<g>
			
				<rect x="7.479" y="53.517" transform="matrix(0.5658 0.8246 -0.8246 0.5658 52.7415 19.0432)" class="st1" width="1.623" height="12.159"/>
		</g>
	</g>
	<g>
		<g>
			
				<rect x="7.479" y="50.071" transform="matrix(0.5658 0.8246 -0.8246 0.5658 49.9002 17.5469)" class="st1" width="1.623" height="12.159"/>
		</g>
	</g>
	<g>
		<g>
			
				<rect x="7.479" y="46.625" transform="matrix(0.566 0.8244 -0.8244 0.566 47.046 16.0372)" class="st1" width="1.622" height="12.159"/>
		</g>
	</g>
	<g>
		<g>
			
				<rect x="7.479" y="43.179" transform="matrix(0.5658 0.8246 -0.8246 0.5658 44.2172 14.5541)" class="st1" width="1.623" height="12.159"/>
		</g>
	</g>
	<g>
		<g>
			
				<rect x="7.479" y="39.734" transform="matrix(0.566 0.8244 -0.8244 0.566 41.3647 13.0466)" class="st1" width="1.622" height="12.159"/>
		</g>
	</g>
	<g>
		<g>
			
				<rect x="7.479" y="36.287" transform="matrix(0.566 0.8244 -0.8244 0.566 38.5237 11.551)" class="st1" width="1.622" height="12.159"/>
		</g>
	</g>
	<g>
		<g>
			
				<rect x="7.48" y="32.841" transform="matrix(0.5666 0.824 -0.824 0.5666 35.6628 10.0367)" class="st1" width="1.62" height="12.159"/>
		</g>
	</g>
	<g>
		<g>
			
				<rect x="7.48" y="29.395" transform="matrix(0.5662 0.8243 -0.8243 0.5662 32.8372 8.5559)" class="st1" width="1.621" height="12.159"/>
		</g>
	</g>
	<g>
		<g>
			
				<rect x="7.48" y="25.949" transform="matrix(0.5663 0.8242 -0.8242 0.5663 29.9925 7.0572)" class="st1" width="1.621" height="12.159"/>
		</g>
	</g>
	<g>
		<g>
			
				<rect x="7.48" y="22.502" transform="matrix(0.5662 0.8243 -0.8243 0.5662 27.156 5.5658)" class="st1" width="1.621" height="12.159"/>
		</g>
	</g>
	<g>
		<g>
			
				<rect x="7.479" y="19.057" transform="matrix(0.566 0.8244 -0.8244 0.566 24.3197 4.0739)" class="st1" width="1.622" height="12.159"/>
		</g>
	</g>
	<g>
		<g>
			
				<rect x="7.479" y="15.612" transform="matrix(0.5659 0.8245 -0.8245 0.5659 21.4825 2.581)" class="st1" width="1.622" height="12.158"/>
		</g>
	</g>
	<g>
		<g>
			
				<rect x="7.48" y="12.165" transform="matrix(0.5662 0.8243 -0.8243 0.5662 18.6353 1.0814)" class="st1" width="1.621" height="12.159"/>
		</g>
	</g>
	<g>
		<g>
			
				<rect x="7.48" y="8.719" transform="matrix(0.5665 0.8241 -0.8241 0.5665 15.7892 -0.4163)" class="st1" width="1.621" height="12.16"/>
		</g>
	</g>
	<g>
		<g>
			
				<rect x="7.48" y="5.272" transform="matrix(0.5665 0.8241 -0.8241 0.5665 12.9492 -1.9104)" class="st1" width="1.621" height="12.16"/>
		</g>
	</g>
	<g>
		<g>
			
				<rect x="109.239" y="62.231" transform="matrix(0.8239 0.5667 -0.5667 0.8239 56.0347 -54.2526)" class="st1" width="12.159" height="1.623"/>
		</g>
	</g>
	<g>
		<g>
			
				<rect x="109.238" y="58.786" transform="matrix(0.8238 0.5668 -0.5668 0.8238 54.097 -54.8674)" class="st1" width="12.16" height="1.622"/>
		</g>
	</g>
	<g>
		<g>
			
				<rect x="109.238" y="55.34" transform="matrix(0.8238 0.5668 -0.5668 0.8238 52.1438 -55.4745)" class="st1" width="12.16" height="1.623"/>
		</g>
	</g>
	<g>
		<g>
			
				<rect x="109.239" y="51.894" transform="matrix(0.8239 0.5668 -0.5668 0.8239 50.1832 -56.0773)" class="st1" width="12.159" height="1.622"/>
		</g>
	</g>
	<g>
		<g>
			
				<rect x="109.238" y="48.448" transform="matrix(0.8238 0.5668 -0.5668 0.8238 48.2372 -56.6887)" class="st1" width="12.16" height="1.622"/>
		</g>
	</g>
	<g>
		<g>
			
				<rect x="109.238" y="45.003" transform="matrix(0.8238 0.5669 -0.5669 0.8238 46.2908 -57.3003)" class="st1" width="12.16" height="1.62"/>
		</g>
	</g>
	<g>
		<g>
			
				<rect x="109.239" y="41.556" transform="matrix(0.8238 0.5668 -0.5668 0.8238 44.3272 -57.9005)" class="st1" width="12.159" height="1.621"/>
		</g>
	</g>
	<g>
		<g>
			
				<rect x="109.239" y="38.11" transform="matrix(0.8239 0.5668 -0.5668 0.8239 42.3672 -58.5028)" class="st1" width="12.159" height="1.621"/>
		</g>
	</g>
	<g>
		<g>
			
				<rect x="109.238" y="34.664" transform="matrix(0.8238 0.5668 -0.5668 0.8238 40.4237 -59.1171)" class="st1" width="12.16" height="1.621"/>
		</g>
	</g>
	<g>
		<g>
			
				<rect x="109.239" y="31.217" transform="matrix(0.8239 0.5668 -0.5668 0.8239 38.4642 -59.7191)" class="st1" width="12.159" height="1.622"/>
		</g>
	</g>
	<g>
		<g>
			
				<rect x="109.239" y="27.771" transform="matrix(0.8239 0.5668 -0.5668 0.8239 36.508 -60.3234)" class="st1" width="12.159" height="1.622"/>
		</g>
	</g>
	<g>
		<g>
			
				<rect x="109.239" y="24.326" transform="matrix(0.8238 0.5668 -0.5668 0.8238 34.5611 -60.9356)" class="st1" width="12.159" height="1.621"/>
		</g>
	</g>
	<g>
		<g>
			
				<rect x="109.238" y="20.881" transform="matrix(0.8238 0.5668 -0.5668 0.8238 32.6108 -61.5452)" class="st1" width="12.16" height="1.621"/>
		</g>
	</g>
	<g>
		<g>
			
				<rect x="109.238" y="17.435" transform="matrix(0.8238 0.5668 -0.5668 0.8238 30.6574 -62.1524)" class="st1" width="12.16" height="1.621"/>
		</g>
	</g>
	<g>
		<g>
			
				<rect x="109.239" y="13.988" transform="matrix(0.8238 0.5668 -0.5668 0.8238 28.7012 -62.7567)" class="st1" width="12.159" height="1.621"/>
		</g>
	</g>
	<g>
		<g>
			
				<rect x="109.239" y="10.541" transform="matrix(0.8239 0.5667 -0.5667 0.8239 26.7404 -63.3549)" class="st1" width="12.159" height="1.623"/>
		</g>
	</g>
	<g>
		<g>
			<path class="st0" d="M121.959,76.163c-0.81,0.283-1.683-0.091-2.028-0.861c-0.026-0.039-0.039-0.076-0.052-0.115
				c-2.082-5.758-7.595-9.639-13.725-9.639H18.645c-6.206,0-11.732,3.934-13.775,9.793c-0.013,0.052-0.039,0.089-0.05,0.141
				c-0.233,0.669-0.861,1.105-1.543,1.105c-0.167,0-0.347-0.039-0.515-0.09c-0.848-0.283-1.297-1.208-1.015-2.056
				c0.707-2.095,1.773-3.984,3.124-5.616c2.005-2.455,4.639-4.33,7.619-5.422c0.527-0.193,1.068-0.36,1.619-0.502
				c1.209-0.322,2.456-0.514,3.728-0.577c0.27-0.014,0.539-0.014,0.809-0.014h87.509c0.167,0,0.321,0,0.488,0.014
				c1.042,0.024,2.069,0.14,3.071,0.347c0.553,0.115,1.092,0.257,1.619,0.411c3.38,1.028,6.387,3.046,8.598,5.757
				c1.285,1.541,2.299,3.303,3.006,5.242C123.232,74.928,122.795,75.854,121.959,76.163z"/>
		</g>
	</g>
	<g>
		<g>
			<path class="st0" d="M62.401,65.553c-0.896,0-1.622-0.727-1.622-1.622V2.434c0-0.895,0.726-1.622,1.622-1.622
				c0.895,0,1.622,0.727,1.622,1.622v61.497C64.022,64.827,63.296,65.553,62.401,65.553z"/>
		</g>
	</g>
	<g>
		<g>
			<path class="st2" d="M124.8,18.646v57.002c0,1.351-1.092,2.431-2.428,2.431c-1.35,0-2.441-1.08-2.441-2.431V18.646
				c0-0.591-0.039-1.17-0.116-1.736c-0.065-0.578-0.167-1.144-0.322-1.695c-0.23-0.927-0.563-1.812-0.976-2.648
				c-1.49-3.006-4.047-5.409-7.184-6.694c-0.527-0.206-1.066-0.385-1.619-0.54c-0.989-0.257-2.018-0.411-3.071-0.449
				c-0.154-0.013-0.321-0.013-0.488-0.013H18.645c-0.27,0-0.54,0.013-0.809,0.024c-1.299,0.078-2.544,0.335-3.728,0.747
				c-0.551,0.192-1.092,0.41-1.619,0.68c-2.224,1.118-4.111,2.827-5.448,4.909c-0.591,0.913-1.079,1.902-1.426,2.956
				c-0.205,0.577-0.372,1.182-0.489,1.798c-0.14,0.695-0.218,1.416-0.244,2.146C4.87,18.298,4.87,18.479,4.87,18.646v57.002
				c0,1.351-1.093,2.431-2.442,2.431C1.091,78.079,0,76.999,0,75.648V18.646C0,8.366,8.364,0,18.645,0h87.509
				C116.435,0,124.8,8.366,124.8,18.646z"/>
		</g>
	</g>
</g>
</svg>
