<?xml version="1.0" encoding="utf-8"?>
<!-- Generator: Adobe Illustrator 16.0.0, SVG Export Plug-In . SVG Version: 6.00 Build 0)  -->
<!DOCTYPE svg PUBLIC "-//W3C//DTD SVG 1.1//EN" "http://www.w3.org/Graphics/SVG/1.1/DTD/svg11.dtd">
<svg version="1.1" id="Layer_1" xmlns="http://www.w3.org/2000/svg" xmlns:xlink="http://www.w3.org/1999/xlink" x="0px" y="0px"
	 width="124.8px" height="78.079px" viewBox="0 0 124.8 78.079" enable-background="new 0 0 124.8 78.079" xml:space="preserve">
<g>
	<g>
		<g>
			<rect x="61.536" y="2.434" fill="#D5E5E6" width="1.621" height="61.729"/>
		</g>
	</g>
	<g>
		<g>
			<rect x="12.489" y="3.401" fill="#D5E5E6" width="1.621" height="61.441"/>
		</g>
	</g>
	<g>
		<g>
			<rect x="109.716" y="3.401" fill="#D5E5E6" width="1.621" height="61.441"/>
		</g>
	</g>
	<g>
		<g>
			<rect x="13.299" y="7.704" fill="#D5E5E6" width="97.227" height="1.622"/>
		</g>
	</g>
	<g>
		<g>
			<rect x="13.299" y="11.354" fill="#D5E5E6" width="97.227" height="1.621"/>
		</g>
	</g>
	<g>
		<g>
			<rect x="13.299" y="15.001" fill="#D5E5E6" width="97.227" height="1.622"/>
		</g>
	</g>
	<g>
		<g>
			<rect x="13.299" y="18.65" fill="#D5E5E6" width="97.227" height="1.622"/>
		</g>
	</g>
	<g>
		<g>
			<rect x="13.299" y="22.299" fill="#D5E5E6" width="97.227" height="1.622"/>
		</g>
	</g>
	<g>
		<g>
			<rect x="13.299" y="25.948" fill="#D5E5E6" width="97.227" height="1.622"/>
		</g>
	</g>
	<g>
		<g>
			<rect x="13.299" y="29.596" fill="#D5E5E6" width="97.227" height="1.622"/>
		</g>
	</g>
	<g>
		<g>
			<rect x="13.299" y="33.246" fill="#D5E5E6" width="97.227" height="1.621"/>
		</g>
	</g>
	<g>
		<g>
			<rect x="13.299" y="36.894" fill="#D5E5E6" width="97.227" height="1.621"/>
		</g>
	</g>
	<g>
		<g>
			<rect x="13.299" y="40.542" fill="#D5E5E6" width="97.227" height="1.621"/>
		</g>
	</g>
	<g>
		<g>
			<rect x="13.299" y="44.192" fill="#D5E5E6" width="97.227" height="1.621"/>
		</g>
	</g>
	<g>
		<g>
			<rect x="13.299" y="47.84" fill="#D5E5E6" width="97.227" height="1.621"/>
		</g>
	</g>
	<g>
		<g>
			<rect x="13.299" y="51.489" fill="#D5E5E6" width="97.227" height="1.621"/>
		</g>
	</g>
	<g>
		<g>
			<rect x="13.299" y="55.135" fill="#D5E5E6" width="97.227" height="1.625"/>
		</g>
	</g>
	<g>
		<g>
			<rect x="13.299" y="58.786" fill="#D5E5E6" width="97.227" height="1.623"/>
		</g>
	</g>
	<g>
		<g>
			<rect x="17.839" y="2.434" fill="#D5E5E6" width="1.622" height="61.729"/>
		</g>
	</g>
	<g>
		<g>
			<rect x="22.544" y="2.434" fill="#D5E5E6" width="1.621" height="61.729"/>
		</g>
	</g>
	<g>
		<g>
			<rect x="27.249" y="2.434" fill="#D5E5E6" width="1.622" height="61.729"/>
		</g>
	</g>
	<g>
		<g>
			<rect x="31.955" y="2.434" fill="#D5E5E6" width="1.622" height="61.729"/>
		</g>
	</g>
	<g>
		<g>
			<rect x="36.659" y="2.434" fill="#D5E5E6" width="1.622" height="61.729"/>
		</g>
	</g>
	<g>
		<g>
			<rect x="41.364" y="2.434" fill="#D5E5E6" width="1.623" height="61.729"/>
		</g>
	</g>
	<g>
		<g>
			<rect x="46.07" y="2.434" fill="#D5E5E6" width="1.62" height="61.729"/>
		</g>
	</g>
	<g>
		<g>
			<rect x="50.774" y="2.434" fill="#D5E5E6" width="1.621" height="61.729"/>
		</g>
	</g>
	<g>
		<g>
			<rect x="55.479" y="2.434" fill="#D5E5E6" width="1.621" height="61.729"/>
		</g>
	</g>
	<g>
		<g>
			<rect x="67.382" y="2.434" fill="#D5E5E6" width="1.621" height="61.729"/>
		</g>
	</g>
	<g>
		<g>
			<rect x="72.085" y="2.434" fill="#D5E5E6" width="1.623" height="61.729"/>
		</g>
	</g>
	<g>
		<g>
			<rect x="76.792" y="2.434" fill="#D5E5E6" width="1.621" height="61.729"/>
		</g>
	</g>
	<g>
		<g>
			<rect x="81.498" y="2.434" fill="#D5E5E6" width="1.619" height="61.729"/>
		</g>
	</g>
	<g>
		<g>
			<rect x="86.201" y="2.434" fill="#D5E5E6" width="1.623" height="61.729"/>
		</g>
	</g>
	<g>
		<g>
			<rect x="90.905" y="2.434" fill="#D5E5E6" width="1.624" height="61.729"/>
		</g>
	</g>
	<g>
		<g>
			<rect x="95.611" y="2.434" fill="#D5E5E6" width="1.622" height="61.729"/>
		</g>
	</g>
	<g>
		<g>
			<rect x="100.317" y="2.434" fill="#D5E5E6" width="1.621" height="61.729"/>
		</g>
	</g>
	<g>
		<g>
			<rect x="105.021" y="2.434" fill="#D5E5E6" width="1.622" height="61.729"/>
		</g>
	</g>
	<g>
		<g>
			
				<rect x="7.478" y="56.965" transform="matrix(-0.566 -0.8244 0.8244 -0.566 -38.9956 105.56)" fill="#D5E5E6" width="1.623" height="12.159"/>
		</g>
	</g>
	<g>
		<g>
			
				<rect x="7.477" y="53.519" transform="matrix(-0.566 -0.8244 0.8244 -0.566 -36.1552 100.1638)" fill="#D5E5E6" width="1.623" height="12.159"/>
		</g>
	</g>
	<g>
		<g>
			
				<rect x="7.477" y="50.074" transform="matrix(-0.5657 -0.8246 0.8246 -0.5657 -33.3267 94.754)" fill="#D5E5E6" width="1.624" height="12.159"/>
		</g>
	</g>
	<g>
		<g>
			
				<rect x="7.477" y="46.623" transform="matrix(-0.566 -0.8244 0.8244 -0.566 -30.4695 89.3632)" fill="#D5E5E6" width="1.623" height="12.159"/>
		</g>
	</g>
	<g>
		<g>
			
				<rect x="7.477" y="43.181" transform="matrix(-0.5657 -0.8246 0.8246 -0.5657 -27.643 83.9624)" fill="#D5E5E6" width="1.624" height="12.159"/>
		</g>
	</g>
	<g>
		<g>
			
				<rect x="7.477" y="39.732" transform="matrix(-0.5658 -0.8246 0.8246 -0.5658 -24.7968 78.5635)" fill="#D5E5E6" width="1.623" height="12.158"/>
		</g>
	</g>
	<g>
		<g>
			
				<rect x="7.478" y="36.285" transform="matrix(-0.5659 -0.8245 0.8245 -0.5659 -21.9489 73.1726)" fill="#D5E5E6" width="1.622" height="12.159"/>
		</g>
	</g>
	<g>
		<g>
			
				<rect x="7.479" y="32.84" transform="matrix(-0.5667 -0.8239 0.8239 -0.5667 -19.0786 67.8071)" fill="#D5E5E6" width="1.62" height="12.159"/>
		</g>
	</g>
	<g>
		<g>
			
				<rect x="7.479" y="29.396" transform="matrix(-0.5661 -0.8243 0.8243 -0.5661 -16.2607 62.3929)" fill="#D5E5E6" width="1.621" height="12.16"/>
		</g>
	</g>
	<g>
		<g>
			
				<rect x="7.479" y="25.948" transform="matrix(-0.5663 -0.8242 0.8242 -0.5663 -13.4127 56.9981)" fill="#D5E5E6" width="1.621" height="12.159"/>
		</g>
	</g>
	<g>
		<g>
			
				<rect x="7.48" y="22.503" transform="matrix(-0.5662 -0.8243 0.8243 -0.5662 -10.5759 51.599)" fill="#D5E5E6" width="1.621" height="12.159"/>
		</g>
	</g>
	<g>
		<g>
			
				<rect x="7.478" y="19.056" transform="matrix(-0.5659 -0.8245 0.8245 -0.5659 -7.7433 46.194)" fill="#D5E5E6" width="1.622" height="12.159"/>
		</g>
	</g>
	<g>
		<g>
			
				<rect x="7.478" y="15.612" transform="matrix(-0.5659 -0.8245 0.8245 -0.5659 -4.9029 40.8004)" fill="#D5E5E6" width="1.622" height="12.158"/>
		</g>
	</g>
	<g>
		<g>
			
				<rect x="7.48" y="12.165" transform="matrix(-0.5662 -0.8243 0.8243 -0.5662 -2.055 35.4087)" fill="#D5E5E6" width="1.621" height="12.159"/>
		</g>
	</g>
	<g>
		<g>
			
				<rect x="7.48" y="8.719" transform="matrix(-0.5667 -0.8239 0.8239 -0.5667 0.7937 30.0166)" fill="#D5E5E6" width="1.621" height="12.16"/>
		</g>
	</g>
	<g>
		<g>
			
				<rect x="7.48" y="5.272" transform="matrix(-0.5665 -0.824 0.824 -0.5665 3.6324 24.6158)" fill="#D5E5E6" width="1.621" height="12.16"/>
		</g>
	</g>
	<g>
		<g>
			
				<rect x="109.241" y="62.228" transform="matrix(-0.8239 -0.5667 0.5667 -0.8239 174.6066 180.3321)" fill="#D5E5E6" width="12.159" height="1.623"/>
		</g>
	</g>
	<g>
		<g>
			
				<rect x="109.236" y="58.78" transform="matrix(-0.8239 -0.5668 0.5668 -0.8239 176.5459 174.0456)" fill="#D5E5E6" width="12.159" height="1.623"/>
		</g>
	</g>
	<g>
		<g>
			
				<rect x="109.236" y="55.334" transform="matrix(-0.8239 -0.5668 0.5668 -0.8239 178.4989 167.7609)" fill="#D5E5E6" width="12.159" height="1.624"/>
		</g>
	</g>
	<g>
		<g>
			
				<rect x="109.241" y="51.898" transform="matrix(-0.8239 -0.5668 0.5668 -0.8239 180.4536 161.4964)" fill="#D5E5E6" width="12.161" height="1.621"/>
		</g>
	</g>
	<g>
		<g>
			
				<rect x="109.236" y="48.442" transform="matrix(-0.8238 -0.5668 0.5668 -0.8238 182.3982 155.1951)" fill="#D5E5E6" width="12.16" height="1.622"/>
		</g>
	</g>
	<g>
		<g>
			
				<rect x="109.238" y="45.004" transform="matrix(-0.8238 -0.5669 0.5669 -0.8238 184.3386 148.9326)" fill="#D5E5E6" width="12.161" height="1.62"/>
		</g>
	</g>
	<g>
		<g>
			
				<rect x="109.234" y="41.553" transform="matrix(-0.8239 -0.5668 0.5668 -0.8239 186.3045 142.6239)" fill="#D5E5E6" width="12.158" height="1.621"/>
		</g>
	</g>
	<g>
		<g>
			
				<rect x="109.239" y="38.116" transform="matrix(-0.8238 -0.5668 0.5668 -0.8238 188.2598 136.3586)" fill="#D5E5E6" width="12.159" height="1.621"/>
		</g>
	</g>
	<g>
		<g>
			
				<rect x="109.236" y="34.658" transform="matrix(-0.8238 -0.5669 0.5669 -0.8238 190.2075 130.0576)" fill="#D5E5E6" width="12.159" height="1.621"/>
		</g>
	</g>
	<g>
		<g>
			
				<rect x="109.242" y="31.22" transform="matrix(-0.8238 -0.5668 0.5668 -0.8238 192.174 123.7855)" fill="#D5E5E6" width="12.159" height="1.622"/>
		</g>
	</g>
	<g>
		<g>
			
				<rect x="109.239" y="27.777" transform="matrix(-0.8239 -0.5668 0.5668 -0.8239 194.1226 117.5004)" fill="#D5E5E6" width="12.159" height="1.622"/>
		</g>
	</g>
	<g>
		<g>
			
				<rect x="109.234" y="24.324" transform="matrix(-0.8238 -0.5668 0.5668 -0.8238 196.066 111.2029)" fill="#D5E5E6" width="12.158" height="1.621"/>
		</g>
	</g>
	<g>
		<g>
			
				<rect x="109.235" y="20.876" transform="matrix(-0.8238 -0.5668 0.5668 -0.8238 198.025 104.9144)" fill="#D5E5E6" width="12.159" height="1.621"/>
		</g>
	</g>
	<g>
		<g>
			
				<rect x="109.235" y="17.43" transform="matrix(-0.8238 -0.5668 0.5668 -0.8238 199.9756 98.6322)" fill="#D5E5E6" width="12.16" height="1.621"/>
		</g>
	</g>
	<g>
		<g>
			
				<rect x="109.233" y="13.986" transform="matrix(-0.8238 -0.5668 0.5668 -0.8238 201.9258 92.3469)" fill="#D5E5E6" width="12.159" height="1.621"/>
		</g>
	</g>
	<g>
		<g>
			
				<rect x="109.239" y="10.538" transform="matrix(-0.8239 -0.5667 0.5667 -0.8239 203.897 86.0539)" fill="#D5E5E6" width="12.159" height="1.623"/>
		</g>
	</g>
	<g>
		<g>
			<path fill="#B5C5C6" d="M121.958,76.163c-0.81,0.283-1.683-0.091-2.027-0.861c-0.026-0.038-0.039-0.075-0.053-0.114
				c-2.082-5.758-7.594-9.64-13.725-9.64H18.645c-6.206,0-11.732,3.935-13.775,9.793c-0.013,0.053-0.039,0.09-0.05,0.142
				c-0.233,0.669-0.861,1.104-1.543,1.104c-0.167,0-0.347-0.039-0.515-0.09c-0.848-0.283-1.297-1.207-1.015-2.056
				c0.707-2.095,1.773-3.983,3.124-5.616c2.005-2.455,4.639-4.33,7.619-5.422c0.527-0.193,1.068-0.359,1.619-0.502
				c1.209-0.322,2.456-0.514,3.728-0.576c0.27-0.015,0.539-0.015,0.809-0.015h87.509c0.167,0,0.321,0,0.488,0.015
				c1.042,0.023,2.069,0.139,3.071,0.346c0.553,0.115,1.092,0.258,1.619,0.412c3.379,1.027,6.387,3.045,8.598,5.756
				c1.285,1.541,2.299,3.304,3.006,5.242C123.232,74.928,122.794,75.854,121.958,76.163z"/>
		</g>
	</g>
	<g>
		<g>
			<path fill="#455556" d="M124.8,18.646v57.002c0,1.351-1.092,2.431-2.428,2.431c-1.351,0-2.441-1.08-2.441-2.431V18.646
				c0-0.591-0.039-1.17-0.116-1.736c-0.065-0.578-0.167-1.144-0.321-1.695c-0.23-0.927-0.563-1.812-0.977-2.648
				c-1.49-3.006-4.047-5.409-7.184-6.694c-0.527-0.206-1.066-0.385-1.619-0.54c-0.989-0.257-2.019-0.411-3.071-0.449
				c-0.153-0.013-0.321-0.013-0.488-0.013h-87.51c-0.27,0-0.54,0.013-0.809,0.024c-1.299,0.078-2.544,0.335-3.728,0.747
				c-0.551,0.192-1.092,0.41-1.619,0.68c-2.224,1.118-4.111,2.827-5.448,4.909c-0.591,0.913-1.079,1.902-1.426,2.956
				c-0.205,0.577-0.372,1.182-0.489,1.798c-0.14,0.695-0.218,1.416-0.244,2.146C4.87,18.298,4.87,18.479,4.87,18.646v57.002
				c0,1.351-1.093,2.431-2.442,2.431C1.091,78.079,0,76.999,0,75.648V18.646C0,8.366,8.364,0,18.645,0h87.509
				C116.435,0,124.8,8.366,124.8,18.646z"/>
		</g>
	</g>
</g>
<path fill="#5CFF44" d="M-0.517,79.79"/>
<g>
	<g>
		<path fill="#455556" d="M83.117,78.079c-0.896,0-1.622-0.727-1.622-1.622V4.212c0-0.895,0.726-1.622,1.622-1.622
			c0.896,0,1.622,0.728,1.622,1.622v72.245C84.738,77.352,84.012,78.079,83.117,78.079z"/>
	</g>
</g>
<g>
	<g>
		<path fill="#455556" d="M41.364,78.079c-0.896,0-1.622-0.727-1.622-1.622V4.212c0-0.895,0.726-1.622,1.622-1.622
			c0.896,0,1.622,0.728,1.622,1.622v72.245C42.985,77.352,42.259,78.079,41.364,78.079z"/>
	</g>
</g>
</svg>
