<?xml version="1.0" encoding="utf-8"?>
<!-- Generator: Adobe Illustrator 16.0.0, SVG Export Plug-In . SVG Version: 6.00 Build 0)  -->
<!DOCTYPE svg PUBLIC "-//W3C//DTD SVG 1.1//EN" "http://www.w3.org/Graphics/SVG/1.1/DTD/svg11.dtd">
<svg version="1.1" id="Layer_1" xmlns="http://www.w3.org/2000/svg" xmlns:xlink="http://www.w3.org/1999/xlink" x="0px" y="0px"
	 width="124.8px" height="101.079px" viewBox="0 -23 124.8 101.079" enable-background="new 0 -23 124.8 101.079"
	 xml:space="preserve">
<rect x="2.4" y="76.374" fill="#B5C5C6" width="119.973" height="1.705"/>
<g>
	<g>
		<g>
			<rect x="61.536" y="2.434" fill="#D5E5E6" width="1.622" height="61.729"/>
		</g>
	</g>
	<g>
		<g>
			<rect x="12.489" y="3.401" fill="#D5E5E6" width="1.621" height="61.441"/>
		</g>
	</g>
	<g>
		<g>
			<rect x="109.716" y="3.401" fill="#D5E5E6" width="1.621" height="61.441"/>
		</g>
	</g>
	<g>
		<g>
			<rect x="13.299" y="7.704" fill="#D5E5E6" width="97.227" height="1.622"/>
		</g>
	</g>
	<g>
		<g>
			<rect x="13.299" y="11.354" fill="#D5E5E6" width="97.227" height="1.621"/>
		</g>
	</g>
	<g>
		<g>
			<rect x="13.299" y="15.001" fill="#D5E5E6" width="97.227" height="1.622"/>
		</g>
	</g>
	<g>
		<g>
			<rect x="13.299" y="18.65" fill="#D5E5E6" width="97.227" height="1.622"/>
		</g>
	</g>
	<g>
		<g>
			<rect x="13.299" y="22.299" fill="#D5E5E6" width="97.227" height="1.622"/>
		</g>
	</g>
	<g>
		<g>
			<rect x="13.299" y="25.948" fill="#D5E5E6" width="97.227" height="1.622"/>
		</g>
	</g>
	<g>
		<g>
			<rect x="13.299" y="29.596" fill="#D5E5E6" width="97.227" height="1.622"/>
		</g>
	</g>
	<g>
		<g>
			<rect x="13.299" y="33.246" fill="#D5E5E6" width="97.227" height="1.621"/>
		</g>
	</g>
	<g>
		<g>
			<rect x="13.299" y="36.894" fill="#D5E5E6" width="97.227" height="1.621"/>
		</g>
	</g>
	<g>
		<g>
			<rect x="13.299" y="40.542" fill="#D5E5E6" width="97.227" height="1.621"/>
		</g>
	</g>
	<g>
		<g>
			<rect x="13.299" y="44.192" fill="#D5E5E6" width="97.227" height="1.621"/>
		</g>
	</g>
	<g>
		<g>
			<rect x="13.299" y="47.84" fill="#D5E5E6" width="97.227" height="1.621"/>
		</g>
	</g>
	<g>
		<g>
			<rect x="13.299" y="51.489" fill="#D5E5E6" width="97.227" height="1.621"/>
		</g>
	</g>
	<g>
		<g>
			<rect x="13.299" y="55.135" fill="#D5E5E6" width="97.227" height="1.625"/>
		</g>
	</g>
	<g>
		<g>
			<rect x="13.299" y="58.786" fill="#D5E5E6" width="97.227" height="1.623"/>
		</g>
	</g>
	<g>
		<g>
			<rect x="17.839" y="2.434" fill="#D5E5E6" width="1.622" height="61.729"/>
		</g>
	</g>
	<g>
		<g>
			<rect x="22.544" y="2.434" fill="#D5E5E6" width="1.621" height="61.729"/>
		</g>
	</g>
	<g>
		<g>
			<rect x="27.249" y="2.434" fill="#D5E5E6" width="1.622" height="61.729"/>
		</g>
	</g>
	<g>
		<g>
			<rect x="31.955" y="2.434" fill="#D5E5E6" width="1.622" height="61.729"/>
		</g>
	</g>
	<g>
		<g>
			<rect x="36.659" y="2.434" fill="#D5E5E6" width="1.622" height="61.729"/>
		</g>
	</g>
	<g>
		<g>
			<rect x="41.364" y="2.434" fill="#D5E5E6" width="1.623" height="61.729"/>
		</g>
	</g>
	<g>
		<g>
			<rect x="46.07" y="2.434" fill="#D5E5E6" width="1.62" height="61.729"/>
		</g>
	</g>
	<g>
		<g>
			<rect x="50.774" y="2.434" fill="#D5E5E6" width="1.621" height="61.729"/>
		</g>
	</g>
	<g>
		<g>
			<rect x="55.479" y="2.434" fill="#D5E5E6" width="1.621" height="61.729"/>
		</g>
	</g>
	<g>
		<g>
			<rect x="67.382" y="2.434" fill="#D5E5E6" width="1.621" height="61.729"/>
		</g>
	</g>
	<g>
		<g>
			<rect x="72.085" y="2.434" fill="#D5E5E6" width="1.623" height="61.729"/>
		</g>
	</g>
	<g>
		<g>
			<rect x="76.792" y="2.434" fill="#D5E5E6" width="1.621" height="61.729"/>
		</g>
	</g>
	<g>
		<g>
			<rect x="81.498" y="2.434" fill="#D5E5E6" width="1.619" height="61.729"/>
		</g>
	</g>
	<g>
		<g>
			<rect x="86.201" y="2.434" fill="#D5E5E6" width="1.623" height="61.729"/>
		</g>
	</g>
	<g>
		<g>
			<rect x="90.905" y="2.434" fill="#D5E5E6" width="1.624" height="61.729"/>
		</g>
	</g>
	<g>
		<g>
			<rect x="95.611" y="2.434" fill="#D5E5E6" width="1.622" height="61.729"/>
		</g>
	</g>
	<g>
		<g>
			<rect x="100.317" y="2.434" fill="#D5E5E6" width="1.621" height="61.729"/>
		</g>
	</g>
	<g>
		<g>
			<rect x="105.021" y="2.434" fill="#D5E5E6" width="1.622" height="61.729"/>
		</g>
	</g>
	<g>
		<g>
			
				<rect x="7.475" y="56.964" transform="matrix(0.5662 0.8243 -0.8243 0.5662 55.5604 20.5195)" fill="#D5E5E6" width="1.623" height="12.159"/>
		</g>
	</g>
	<g>
		<g>
			
				<rect x="7.475" y="53.519" transform="matrix(0.566 0.8244 -0.8244 0.566 52.731 19.0359)" fill="#D5E5E6" width="1.623" height="12.158"/>
		</g>
	</g>
	<g>
		<g>
			
				<rect x="7.476" y="50.073" transform="matrix(0.5654 0.8248 -0.8248 0.5654 49.9176 17.5674)" fill="#D5E5E6" width="1.624" height="12.159"/>
		</g>
	</g>
	<g>
		<g>
			
				<rect x="7.476" y="46.621" transform="matrix(0.566 0.8244 -0.8244 0.566 47.0448 16.0417)" fill="#D5E5E6" width="1.623" height="12.159"/>
		</g>
	</g>
	<g>
		<g>
			
				<rect x="7.476" y="43.181" transform="matrix(0.5656 0.8247 -0.8247 0.5656 44.2243 14.5634)" fill="#D5E5E6" width="1.625" height="12.159"/>
		</g>
	</g>
	<g>
		<g>
			
				<rect x="7.477" y="39.729" transform="matrix(0.5657 0.8246 -0.8246 0.5657 41.3749 13.0598)" fill="#D5E5E6" width="1.624" height="12.158"/>
		</g>
	</g>
	<g>
		<g>
			
				<rect x="7.479" y="36.285" transform="matrix(0.5658 0.8246 -0.8246 0.5658 38.532 11.5607)" fill="#D5E5E6" width="1.623" height="12.159"/>
		</g>
	</g>
	<g>
		<g>
			
				<rect x="7.48" y="32.843" transform="matrix(0.5666 0.824 -0.824 0.5666 35.6642 10.0379)" fill="#D5E5E6" width="1.62" height="12.159"/>
		</g>
	</g>
	<g>
		<g>
			
				<rect x="7.479" y="29.397" transform="matrix(0.5661 0.8243 -0.8243 0.5661 32.8407 8.5595)" fill="#D5E5E6" width="1.621" height="12.16"/>
		</g>
	</g>
	<g>
		<g>
			
				<rect x="7.48" y="25.949" transform="matrix(0.5663 0.8242 -0.8242 0.5663 29.9928 7.0576)" fill="#D5E5E6" width="1.621" height="12.159"/>
		</g>
	</g>
	<g>
		<g>
			
				<rect x="7.48" y="22.502" transform="matrix(0.5663 0.8242 -0.8242 0.5663 27.152 5.5623)" fill="#D5E5E6" width="1.621" height="12.159"/>
		</g>
	</g>
	<g>
		<g>
			
				<rect x="7.479" y="19.056" transform="matrix(0.5657 0.8246 -0.8246 0.5657 24.3274 4.0803)" fill="#D5E5E6" width="1.622" height="12.159"/>
		</g>
	</g>
	<g>
		<g>
			
				<rect x="7.48" y="15.612" transform="matrix(0.566 0.8244 -0.8244 0.566 21.4794 2.5785)" fill="#D5E5E6" width="1.622" height="12.158"/>
		</g>
	</g>
	<g>
		<g>
			
				<rect x="7.479" y="12.165" transform="matrix(0.5661 0.8243 -0.8243 0.5661 18.6362 1.0825)" fill="#D5E5E6" width="1.621" height="12.159"/>
		</g>
	</g>
	<g>
		<g>
			
				<rect x="7.478" y="8.719" transform="matrix(0.5667 0.8239 -0.8239 0.5667 15.7854 -0.4161)" fill="#D5E5E6" width="1.621" height="12.16"/>
		</g>
	</g>
	<g>
		<g>
			
				<rect x="7.479" y="5.274" transform="matrix(0.5665 0.824 -0.824 0.5665 12.9493 -1.9099)" fill="#D5E5E6" width="1.621" height="12.16"/>
		</g>
	</g>
	<g>
		<g>
			
				<rect x="109.239" y="62.231" transform="matrix(0.8239 0.5667 -0.5667 0.8239 56.0291 -54.25)" fill="#D5E5E6" width="12.159" height="1.623"/>
		</g>
	</g>
	<g>
		<g>
			
				<rect x="109.234" y="58.776" transform="matrix(0.8239 0.5668 -0.5668 0.8239 54.0834 -54.8626)" fill="#D5E5E6" width="12.159" height="1.623"/>
		</g>
	</g>
	<g>
		<g>
			
				<rect x="109.234" y="55.329" transform="matrix(0.8239 0.5668 -0.5668 0.8239 52.1301 -55.4696)" fill="#D5E5E6" width="12.159" height="1.624"/>
		</g>
	</g>
	<g>
		<g>
			
				<rect x="109.234" y="51.895" transform="matrix(0.8238 0.5668 -0.5668 0.8238 50.1877 -56.0782)" fill="#D5E5E6" width="12.162" height="1.621"/>
		</g>
	</g>
	<g>
		<g>
			
				<rect x="109.238" y="48.448" transform="matrix(0.8238 0.5668 -0.5668 0.8238 48.2373 -56.6883)" fill="#D5E5E6" width="12.16" height="1.622"/>
		</g>
	</g>
	<g>
		<g>
			
				<rect x="109.231" y="45.007" transform="matrix(0.8238 0.5669 -0.5669 0.8238 46.2917 -57.2954)" fill="#D5E5E6" width="12.16" height="1.62"/>
		</g>
	</g>
	<g>
		<g>
			
				<rect x="109.23" y="41.551" transform="matrix(0.8239 0.5668 -0.5668 0.8239 44.3195 -57.8943)" fill="#D5E5E6" width="12.159" height="1.622"/>
		</g>
	</g>
	<g>
		<g>
			
				<rect x="109.245" y="38.118" transform="matrix(0.8238 0.5668 -0.5668 0.8238 42.3816 -58.511)" fill="#D5E5E6" width="12.157" height="1.621"/>
		</g>
	</g>
	<g>
		<g>
			
				<rect x="109.238" y="34.656" transform="matrix(0.8238 0.5669 -0.5669 0.8238 40.4264 -59.1241)" fill="#D5E5E6" width="12.159" height="1.621"/>
		</g>
	</g>
	<g>
		<g>
			
				<rect x="109.248" y="31.223" transform="matrix(0.8239 0.5668 -0.5668 0.8239 38.4691 -59.7233)" fill="#D5E5E6" width="12.159" height="1.622"/>
		</g>
	</g>
	<g>
		<g>
			
				<rect x="109.236" y="27.773" transform="matrix(0.8239 0.5668 -0.5668 0.8239 36.5117 -60.324)" fill="#D5E5E6" width="12.159" height="1.622"/>
		</g>
	</g>
	<g>
		<g>
			
				<rect x="109.239" y="24.327" transform="matrix(0.8238 0.5668 -0.5668 0.8238 34.5636 -60.9368)" fill="#D5E5E6" width="12.157" height="1.621"/>
		</g>
	</g>
	<g>
		<g>
			
				<rect x="109.242" y="20.878" transform="matrix(0.8238 0.5668 -0.5668 0.8238 32.6082 -61.5453)" fill="#D5E5E6" width="12.158" height="1.621"/>
		</g>
	</g>
	<g>
		<g>
			
				<rect x="109.238" y="17.434" transform="matrix(0.8238 0.5668 -0.5668 0.8238 30.6548 -62.1492)" fill="#D5E5E6" width="12.159" height="1.622"/>
		</g>
	</g>
	<g>
		<g>
			
				<rect x="109.239" y="13.988" transform="matrix(0.8238 0.5668 -0.5668 0.8238 28.7048 -62.7603)" fill="#D5E5E6" width="12.159" height="1.621"/>
		</g>
	</g>
	<g>
		<g>
			
				<rect x="109.239" y="10.541" transform="matrix(0.8239 0.5667 -0.5667 0.8239 26.7403 -63.3547)" fill="#D5E5E6" width="12.159" height="1.623"/>
		</g>
	</g>
	<g>
		<g>
			<path fill="#B5C5C6" d="M121.958,76.163c-0.811,0.283-1.684-0.091-2.027-0.861c-0.026-0.037-0.039-0.074-0.053-0.113
				c-2.082-5.758-7.594-9.641-13.726-9.641H18.645c-6.206,0-11.732,3.936-13.775,9.793c-0.013,0.054-0.039,0.091-0.05,0.143
				c-0.233,0.669-0.861,1.104-1.543,1.104c-0.167,0-0.347-0.039-0.515-0.09c-0.848-0.283-1.297-1.207-1.015-2.056
				c0.707-2.095,1.773-3.983,3.124-5.616c2.005-2.455,4.639-4.33,7.619-5.422c0.527-0.193,1.068-0.359,1.619-0.502
				c1.209-0.322,2.456-0.514,3.728-0.576c0.27-0.015,0.539-0.015,0.809-0.015h87.509c0.167,0,0.321,0,0.488,0.015
				c1.042,0.023,2.069,0.139,3.071,0.346c0.553,0.115,1.092,0.259,1.619,0.412c3.379,1.027,6.387,3.045,8.598,5.756
				c1.285,1.541,2.299,3.305,3.006,5.242C123.232,74.928,122.794,75.854,121.958,76.163z"/>
		</g>
	</g>
	<g>
		<g>
			<path fill="#455556" d="M124.8,18.646v57.002c0,1.351-1.092,2.431-2.428,2.431c-1.352,0-2.441-1.08-2.441-2.431V18.646
				c0-0.591-0.039-1.17-0.116-1.736c-0.065-0.578-0.167-1.144-0.321-1.695c-0.229-0.927-0.563-1.812-0.977-2.648
				c-1.49-3.006-4.047-5.409-7.184-6.694c-0.527-0.206-1.066-0.385-1.619-0.54c-0.989-0.257-2.02-0.411-3.071-0.449
				c-0.153-0.013-0.321-0.013-0.488-0.013h-87.51c-0.27,0-0.54,0.013-0.809,0.024c-1.299,0.078-2.544,0.335-3.728,0.747
				c-0.551,0.192-1.092,0.41-1.619,0.68c-2.224,1.118-4.111,2.827-5.448,4.909c-0.591,0.913-1.079,1.902-1.426,2.956
				c-0.205,0.577-0.372,1.182-0.489,1.798c-0.14,0.695-0.218,1.416-0.244,2.146C4.87,18.298,4.87,18.479,4.87,18.646v57.002
				c0,1.351-1.093,2.431-2.442,2.431C1.091,78.079,0,76.999,0,75.648V18.646C0,8.366,8.364,0,18.645,0h87.509
				C116.435,0,124.8,8.366,124.8,18.646z"/>
		</g>
	</g>
</g>
<path fill="#5CFF44" d="M-0.517,79.79"/>
<g>
	<g>
		<path fill="#455556" d="M83.117,78.079c-0.896,0-1.621-0.727-1.621-1.621V4.212c0-0.895,0.726-1.622,1.621-1.622
			c0.896,0,1.622,0.728,1.622,1.622v72.246C84.738,77.352,84.012,78.079,83.117,78.079z"/>
	</g>
</g>
<g>
	<g>
		<path fill="#455556" d="M41.364,78.079c-0.896,0-1.622-0.727-1.622-1.621V4.212c0-0.895,0.726-1.622,1.622-1.622
			s1.622,0.728,1.622,1.622v72.246C42.985,77.352,42.259,78.079,41.364,78.079z"/>
	</g>
</g>
<g>
	<path fill="#E5E5E5" d="M98.508-23H26.292c-1.494,0-2.705,1.211-2.705,2.706v6.313v11.274V0h2.705h72.217h2.706v-2.706V-13.98
		v-6.313C101.214-21.789,100.003-23,98.508-23z"/>
	<g>
		<g>
			<g>
				<g>
					<defs>
						<rect id="SVGID_1_" x="27.927" y="-21.148" width="19.297" height="19.297"/>
					</defs>
					<clipPath id="SVGID_2_">
						<use xlink:href="#SVGID_1_"  overflow="visible"/>
					</clipPath>
					<path clip-path="url(#SVGID_2_)" fill="#00973E" d="M37.576-8.172h-2.663v-2.663c0-1.47,1.192-2.662,2.663-2.662
						c1.47,0,2.662,1.192,2.662,2.662C40.238-9.364,39.046-8.172,37.576-8.172"/>
				</g>
			</g>
			<g>
				<g>
					<defs>
						<rect id="SVGID_3_" x="27.927" y="-21.148" width="19.297" height="19.297"/>
					</defs>
					<clipPath id="SVGID_4_">
						<use xlink:href="#SVGID_3_"  overflow="visible"/>
					</clipPath>
					<path clip-path="url(#SVGID_4_)" fill="#00973E" d="M43.566-20.153h-8.653v6.342c0.706-0.633,1.64-1.017,2.663-1.017
						c2.205,0,3.993,1.788,3.993,3.994c0,2.205-1.788,3.993-3.993,3.993h-3.994v-13.313h-1.997c-1.471,0-2.662,1.192-2.662,2.662
						v14.645h14.644c1.471,0,2.663-1.192,2.663-2.663v-11.981C46.229-18.961,45.037-20.153,43.566-20.153"/>
				</g>
			</g>
		</g>
		<g>
			<path d="M50.757-8.315h-0.561v-6.64h0.561V-8.315z"/>
			<path d="M57.262-11.274c0,0.632-0.112,1.184-0.336,1.653c-0.226,0.47-0.543,0.825-0.955,1.064l1.208,1.054l-0.388,0.347
				l-1.354-1.173c-0.249,0.07-0.503,0.106-0.764,0.106c-0.503,0-0.953-0.125-1.347-0.374c-0.394-0.25-0.699-0.603-0.914-1.061
				c-0.216-0.458-0.325-0.986-0.328-1.585v-0.744c0-0.605,0.106-1.141,0.321-1.608c0.215-0.466,0.518-0.824,0.91-1.075
				c0.392-0.251,0.843-0.377,1.35-0.377c0.518,0,0.972,0.125,1.364,0.375c0.392,0.249,0.693,0.606,0.91,1.071
				c0.213,0.466,0.321,1.002,0.321,1.609V-11.274z M56.7-11.995c0-0.8-0.182-1.427-0.543-1.879c-0.36-0.453-0.856-0.68-1.49-0.68
				c-0.614,0-1.105,0.227-1.471,0.682c-0.368,0.455-0.551,1.09-0.551,1.904v0.693c0,0.787,0.183,1.412,0.546,1.872
				c0.364,0.46,0.858,0.691,1.483,0.691c0.634,0,1.13-0.227,1.488-0.68c0.357-0.453,0.537-1.085,0.537-1.897V-11.995z"/>
			<path d="M64.346-9.947c0-0.368-0.125-0.659-0.383-0.873c-0.26-0.215-0.731-0.419-1.419-0.611
				c-0.688-0.193-1.19-0.403-1.506-0.632c-0.449-0.322-0.675-0.745-0.675-1.269c0-0.507,0.208-0.92,0.626-1.237
				c0.419-0.318,0.953-0.478,1.604-0.478c0.44,0,0.834,0.085,1.184,0.256c0.344,0.17,0.614,0.409,0.809,0.712
				c0.193,0.303,0.288,0.643,0.288,1.017h-0.569c0-0.454-0.151-0.818-0.464-1.096c-0.313-0.275-0.728-0.414-1.247-0.414
				c-0.507,0-0.911,0.113-1.213,0.34c-0.303,0.228-0.455,0.523-0.455,0.889c0,0.339,0.137,0.614,0.409,0.827
				c0.27,0.214,0.702,0.401,1.301,0.563c0.596,0.164,1.047,0.332,1.35,0.508c0.312,0.174,0.54,0.384,0.696,0.627
				c0.155,0.243,0.234,0.53,0.234,0.861c0,0.523-0.211,0.943-0.628,1.26s-0.969,0.475-1.652,0.475c-0.474,0-0.899-0.085-1.293-0.251
				c-0.388-0.168-0.688-0.402-0.886-0.702c-0.204-0.303-0.307-0.646-0.307-1.036h0.563c0,0.468,0.173,0.839,0.526,1.108
				c0.351,0.271,0.814,0.406,1.396,0.406c0.515,0,0.931-0.114,1.243-0.342C64.194-9.268,64.346-9.57,64.346-9.947z M62.608-15.867
				l0.78-0.884h0.487v0.054l-1.08,1.189h-0.388l-1.072-1.194v-0.049h0.488L62.608-15.867z"/>
			<path d="M67.433-11.612l-0.938,0.921v2.376h-0.559v-6.64h0.559v3.58l3.406-3.58h0.706L67.825-12l2.993,3.685h-0.684
				L67.433-11.612z M67.756-6.249l-0.323-0.236c0.21-0.298,0.319-0.617,0.327-0.958v-0.438h0.526v0.287
				C68.287-7.013,68.111-6.566,67.756-6.249z"/>
			<path d="M73.573-16.018h-3.057v-0.438h3.057V-16.018z M72.325-8.315h-0.559v-6.64h0.559V-8.315z"/>
			<path d="M74.503-8.788h3.279v0.473h-3.839v-6.64h0.56V-8.788z"/>
			<path d="M79.361-8.315h-0.564v-6.64h0.564V-8.315z"/>
			<path d="M84.639-11.498h-3.105v2.71h3.573v0.473h-4.135v-6.64h4.108v0.474h-3.547v2.51h3.105V-11.498z"/>
			<path d="M91.043-8.315h-0.562l-3.814-5.682v5.682h-0.568v-6.64h0.568l3.824,5.688v-5.688h0.552V-8.315z"/>
			<path d="M96.303-9.947c0-0.368-0.13-0.659-0.387-0.873c-0.261-0.215-0.729-0.419-1.421-0.611
				c-0.688-0.193-1.189-0.403-1.506-0.632c-0.445-0.322-0.673-0.745-0.673-1.269c0-0.507,0.208-0.92,0.625-1.237
				c0.423-0.318,0.954-0.478,1.607-0.478c0.438,0,0.831,0.085,1.185,0.256c0.345,0.17,0.614,0.409,0.806,0.712
				c0.19,0.303,0.288,0.643,0.288,1.017h-0.566c0-0.454-0.155-0.818-0.466-1.096c-0.31-0.275-0.726-0.414-1.246-0.414
				c-0.512,0-0.911,0.113-1.217,0.34c-0.301,0.228-0.45,0.523-0.45,0.889c0,0.339,0.134,0.614,0.404,0.827
				c0.271,0.214,0.704,0.401,1.3,0.563c0.601,0.164,1.047,0.332,1.355,0.508c0.307,0.174,0.537,0.384,0.692,0.627
				s0.239,0.53,0.239,0.861c0,0.523-0.215,0.943-0.633,1.26c-0.415,0.316-0.971,0.475-1.654,0.475c-0.468,0-0.896-0.085-1.288-0.251
				c-0.389-0.168-0.687-0.402-0.889-0.702c-0.202-0.303-0.303-0.646-0.303-1.036h0.56c0,0.468,0.176,0.839,0.524,1.108
				c0.355,0.271,0.815,0.406,1.396,0.406c0.518,0,0.933-0.114,1.246-0.342C96.146-9.268,96.303-9.57,96.303-9.947z"/>
		</g>
	</g>
</g>
</svg>
